<?xml version="1.0" encoding="UTF-8" standalone="no"?>
<!DOCTYPE svg PUBLIC "-//W3C//DTD SVG 1.1//EN" "http://www.w3.org/Graphics/SVG/1.1/DTD/svg11.dtd">
<svg width="100%" height="100%" viewBox="0 0 589 273" version="1.1" xmlns="http://www.w3.org/2000/svg" xmlns:xlink="http://www.w3.org/1999/xlink" xml:space="preserve" xmlns:serif="http://www.serif.com/" style="fill-rule:evenodd;clip-rule:evenodd;stroke-linecap:round;stroke-linejoin:round;stroke-miterlimit:1.5;">
    <g transform="matrix(1,0,0,1,-487.031,-338.087)">
        <g transform="matrix(-6.12323e-17,1,-1,-6.12323e-17,1255.45,-307.046)">
            <path d="M743.019,764.309C749.325,677.906 760.947,562.663 756.055,511.508C755.306,503.686 752.532,475.497 750.62,472.597C738.486,454.196 701.765,436.198 694.464,408.833C686.849,380.294 659.807,334.531 647.727,320.431C640.252,311.708 666.587,310.35 674.537,316.808C691.471,330.567 714.948,377.698 726.708,375.863C741.804,373.508 748.626,332.085 745.548,309.2C741.381,278.224 721.72,184.17 738.664,183.482C759.047,182.655 768.243,312.099 781.95,311.736C795.657,311.374 800.171,178.252 820.906,181.308C838.188,183.856 810.158,309.683 818.732,314.635C827.307,319.586 853.128,197.945 872.353,211.017C885.22,219.766 843.248,327.436 850.252,336.01C857.257,344.585 903.369,252.355 914.38,262.464C926.456,273.551 870.841,342.321 865.107,379.849C854.432,449.716 839.998,443.986 839.746,477.67C839.263,542.219 862.208,767.147 862.208,767.147L743.019,764.309Z" style="fill:none;stroke:white;stroke-opacity:0.5;stroke-width:2.54px;"/>
        </g>
    </g>
</svg>
